<?xml version="1.0" encoding="utf-8"?>
<!-- Generator: Adobe Illustrator 16.0.0, SVG Export Plug-In . SVG Version: 6.00 Build 0)  -->
<!DOCTYPE svg PUBLIC "-//W3C//DTD SVG 1.1//EN" "http://www.w3.org/Graphics/SVG/1.1/DTD/svg11.dtd">
<svg version="1.1" id="Layer_1" xmlns="http://www.w3.org/2000/svg" xmlns:xlink="http://www.w3.org/1999/xlink" x="0px" y="0px"
	 width="180.75px" height="128px" viewBox="0 0 180.75 128" enable-background="new 0 0 180.75 128" xml:space="preserve">
<g>
	<g enable-background="new    ">
		<path fill="#F16823" d="M4.126,33.573h2.908V22.464H4.126v-3.993h7.638v15.103h2.821v3.905H4.126V33.573z M5.775,12.439
			c0-1.736,1.519-3.125,3.211-3.125s3.125,1.389,3.125,3.125c0,1.735-1.519,3.124-3.211,3.124S5.775,14.175,5.775,12.439z"/>
	</g>
	<g enable-background="new    ">
		<path fill="#F16823" d="M13.63,23.201c0-8.593,6.683-14.798,15.015-14.798c6.64,0,11.066,3.472,11.066,6.899
			c0,2.083-1.345,3.516-3.125,3.516c-1.953,0-3.298-1.215-3.298-3.081c0-0.564,0.13-1.129,0.304-1.476
			c-0.825-0.651-2.474-1.302-5.078-1.302c-5.555,0-9.807,4.253-9.807,10.198c0,5.728,3.992,10.284,10.024,10.284
			c3.341,0,6.075-1.476,8.202-3.775l3.255,3.385c-2.777,3.081-6.9,4.947-11.457,4.947C19.922,37.999,13.63,32.098,13.63,23.201z"/>
	</g>
	<text transform="matrix(1 0 0 1 51.6484 37.4785)" fill="#F16823" font-family="'Archer-Bold'" font-size="43.4002"> </text>
	<g enable-background="new    ">
		<path fill="#F16823" d="M77.729,21.248c0,1.606-1.258,2.951-2.82,2.951c-1.432,0-2.387-0.824-2.777-1.692
			c-1.346,0.478-2.908,1.953-3.776,3.602v7.465h3.298v3.905H60.805v-3.905h2.821V22.464h-2.821v-3.993h7.377v4.297
			c1.605-2.561,3.602-4.644,6.032-4.644C76.558,18.124,77.729,19.556,77.729,21.248z"/>
	</g>
	<g enable-background="new    ">
		<path fill="#F16823" d="M90.575,25.241c-1.519,0-2.561-0.912-2.561-2.344c0-0.304,0-0.564,0.087-0.824
			c-0.781-0.304-1.736-0.478-2.69-0.478c-2.126,0-3.168,0.955-3.168,1.953c0,1.084,1.085,1.648,3.992,2.43
			c4.557,1.215,7.204,2.344,7.204,5.771c0,3.992-3.732,6.119-8.028,6.119c-2.908,0-6.032-1.042-7.291-2.3
			c-0.781-0.781-1.085-1.562-1.085-2.561c0-1.389,1.042-2.561,2.517-2.561c1.302,0,2.56,0.868,2.56,2.517
			c0,0.261-0.043,0.521-0.086,0.781c0.868,0.348,2.083,0.607,3.428,0.607c1.909,0,3.472-0.65,3.472-2.039
			c0-0.955-0.825-1.519-3.732-2.3c-5.251-1.389-7.464-2.647-7.464-5.902c0-2.95,2.43-6.032,7.768-6.032
			c2.3,0,5.077,0.868,6.379,2.17c0.694,0.694,1.041,1.52,1.041,2.431C92.918,24.199,91.964,25.241,90.575,25.241z"/>
	</g>
	<g>
		<path id="path" fill="#F16823" d="M56.594,24.232c-0.209-0.539,1.468-2.225,2.532-1.159c1.805,1.804-3.346,0.956-1.107,2.848
			c2.626,2.223,0.757,4.54,0.053,7.122c-0.327,1.202,0.614,3.031-0.474,3.482c-1.298,0.539-3.311,0.083-2.691-1.793
			c-3.021,0-6.594,0.178-9.551,0.054c-1.372-0.059-0.871,2.869-3.587,1.74c-1.042-0.433-0.203-2.297-0.475-3.43
			c-0.616-2.554-2.681-4.943,0.105-7.229c2.234-1.833-2.996-0.96-1.159-2.795c0.969-0.971,2.651,0.404,2.533,1.212
			C41.09,15.119,58.218,15.098,56.594,24.232z M44.986,23.704c2.458-1.108,6.932-1.108,9.391,0
			C55.452,18.043,43.911,18.043,44.986,23.704z M45.619,25.234c1.147,1.554,1.653,6.873,5.646,5.012
			c1.337-0.623,1.312-3.992,2.479-5.012C51.59,24.325,47.772,24.325,45.619,25.234z M42.189,28.61
			c-1.719,5.804,16.676,5.714,14.984,0c-0.094-0.312-0.209-0.49-0.37-0.686c-2.319-2.825-3.62,3.312-4.906,3.852
			c-0.981,0.413-3.636,0.38-4.486,0c-1.243-0.556-1.883-4.778-3.376-4.59C43.058,27.309,42.405,27.881,42.189,28.61z"/>
		<path fill="#F16823" d="M49.522,25.128c0.873-0.328,1.048,4.833,0.106,4.748C48.959,29.816,48.949,25.344,49.522,25.128z"/>
		<path fill="#F16823" d="M43.931,28.716c1.983-0.42,1.926,2.461,0.369,2.533C42.715,31.322,42.472,29.024,43.931,28.716z"/>
		<path fill="#F16823" d="M54.853,28.716c1.996-0.423,1.97,2.564,0.262,2.533C53.645,31.223,53.424,29.018,54.853,28.716z"/>
	</g>
	<g enable-background="new    ">
		<path fill="#771C1C" d="M93.984,28.185c0-4.946,3.992-9.677,9.634-9.677c5.208,0,8.636,3.385,8.636,6.379
			c0,1.996-1.346,3.212-3.037,3.212c-1.562,0-2.865-1.303-2.865-2.864c0-0.564,0.261-1.216,0.607-1.606
			c-0.347-0.477-1.518-1.302-3.385-1.302c-2.17,0-4.859,1.779-4.859,5.945c0,3.646,2.777,5.945,6.162,5.945
			c2.3,0,4.296-0.65,6.77-1.996l-0.391,4.253c-2.039,1.172-3.992,1.736-6.77,1.736C98.498,38.21,93.984,34.304,93.984,28.185z"/>
	</g>
	<g enable-background="new    ">
		<path fill="#771C1C" d="M112.689,33.957h2.951V10.089h-2.951V6.097h7.682v27.86h2.82v3.905h-10.502V33.957z"/>
	</g>
	<g enable-background="new    ">
		<path fill="#771C1C" d="M125.362,35.692c-0.607-0.998-0.954-2.3-0.954-3.818v-9.026h-2.821v-3.993h7.551v11.848
			c0,0.824,0.13,1.432,0.391,1.953c0.435,0.824,1.216,1.258,2.343,1.258c1.65,0,3.386-0.954,4.904-2.213v-8.853h-2.951v-3.993h7.682
			v15.103h2.82v3.905h-7.377v-3.038c-1.822,1.779-3.862,3.386-6.64,3.386C128.01,38.21,126.316,37.255,125.362,35.692z"/>
	</g>
	<g enable-background="new    ">
		<path fill="#771C1C" d="M150.272,36.04l-1.042,1.909h-3.211v-27.86h-2.864V6.097h7.595v14.841c1.389-1.345,3.168-2.43,5.598-2.43
			c5.034,0,8.81,4.036,8.81,9.764c0,5.512-3.993,9.938-9.113,9.938C153.613,38.21,151.878,37.342,150.272,36.04z M160.297,28.315
			c0-3.646-2.257-5.729-5.034-5.729c-1.779,0-3.211,0.781-4.513,1.909v8.159c1.258,0.867,2.733,1.475,4.513,1.475
			C157.91,34.13,160.297,32.091,160.297,28.315z"/>
	</g>
	<g enable-background="new    ">
		<path fill="#4C9694" d="M93.984,28.185c0-4.946,3.992-9.677,9.634-9.677c5.208,0,8.636,3.385,8.636,6.379
			c0,1.996-1.346,3.212-3.037,3.212c-1.562,0-2.865-1.303-2.865-2.864c0-0.564,0.261-1.216,0.607-1.606
			c-0.347-0.477-1.518-1.302-3.385-1.302c-2.17,0-4.859,1.779-4.859,5.945c0,3.646,2.777,5.945,6.162,5.945
			c2.3,0,4.296-0.65,6.77-1.996l-0.391,4.253c-2.039,1.172-3.992,1.736-6.77,1.736C98.498,38.21,93.984,34.304,93.984,28.185z"/>
	</g>
	<g enable-background="new    ">
		<path fill="#4C9694" d="M112.689,33.957h2.951V10.089h-2.951V6.097h7.682v27.86h2.82v3.905h-10.502V33.957z"/>
	</g>
	<g enable-background="new    ">
		<path fill="#4C9694" d="M125.362,35.692c-0.607-0.998-0.954-2.3-0.954-3.818v-9.026h-2.821v-3.993h7.551v11.848
			c0,0.824,0.13,1.432,0.391,1.953c0.435,0.824,1.216,1.258,2.343,1.258c1.65,0,3.386-0.954,4.904-2.213v-8.853h-2.951v-3.993h7.682
			v15.103h2.82v3.905h-7.377v-3.038c-1.822,1.779-3.862,3.386-6.64,3.386C128.01,38.21,126.316,37.255,125.362,35.692z"/>
	</g>
	<g enable-background="new    ">
		<path fill="#4C9694" d="M150.272,36.04l-1.042,1.909h-3.211v-27.86h-2.864V6.097h7.595v14.841c1.389-1.345,3.168-2.43,5.598-2.43
			c5.034,0,8.81,4.036,8.81,9.764c0,5.512-3.993,9.938-9.113,9.938C153.613,38.21,151.878,37.342,150.272,36.04z M160.297,28.315
			c0-3.646-2.257-5.729-5.034-5.729c-1.779,0-3.211,0.781-4.513,1.909v8.159c1.258,0.867,2.733,1.475,4.513,1.475
			C157.91,34.13,160.297,32.091,160.297,28.315z"/>
	</g>
</g>
<g>
	<g enable-background="new    ">
		<path fill="#F16823" d="M2.983,111.693h2.259v-8.633H2.983v-3.103h5.935v11.735h2.192v3.035H2.983V111.693z M4.265,95.271
			c0-1.349,1.181-2.428,2.496-2.428s2.428,1.079,2.428,2.428c0,1.35-1.181,2.429-2.496,2.429C5.377,97.699,4.265,96.62,4.265,95.271
			z"/>
	</g>
	<g enable-background="new    ">
		<path fill="#F16823" d="M10.368,103.634c0-6.677,5.193-11.499,11.667-11.499c5.16,0,8.599,2.698,8.599,5.362
			c0,1.618-1.045,2.731-2.428,2.731c-1.518,0-2.563-0.944-2.563-2.395c0-0.438,0.101-0.877,0.236-1.146
			c-0.641-0.506-1.922-1.012-3.946-1.012c-4.316,0-7.621,3.305-7.621,7.925c0,4.451,3.103,7.992,7.79,7.992
			c2.596,0,4.721-1.146,6.373-2.935l2.529,2.631c-2.158,2.395-5.362,3.844-8.902,3.844
			C15.257,115.133,10.368,110.547,10.368,103.634z"/>
	</g>
	<text transform="matrix(1 0 0 1 39.9033 114.7285)" fill="#F16823" font-family="'Archer-Bold'" font-size="33.7174"> </text>
	<g enable-background="new    ">
		<path fill="#F16823" d="M60.169,102.116c0,1.248-0.978,2.293-2.192,2.293c-1.113,0-1.854-0.641-2.158-1.314
			c-1.045,0.371-2.259,1.518-2.934,2.799v5.8h2.563v3.035h-8.431v-3.035h2.192v-8.633h-2.192v-3.103h5.733v3.339
			c1.248-1.989,2.799-3.608,4.687-3.608C59.259,99.688,60.169,100.802,60.169,102.116z"/>
	</g>
	<g enable-background="new    ">
		<path fill="#F16823" d="M70.149,105.219c-1.18,0-1.99-0.708-1.99-1.82c0-0.236,0-0.438,0.067-0.642
			c-0.607-0.235-1.349-0.37-2.09-0.37c-1.652,0-2.462,0.741-2.462,1.517c0,0.844,0.843,1.282,3.103,1.889
			c3.541,0.944,5.598,1.821,5.598,4.485c0,3.103-2.9,4.755-6.238,4.755c-2.26,0-4.688-0.81-5.666-1.787
			c-0.607-0.607-0.843-1.214-0.843-1.99c0-1.079,0.81-1.989,1.956-1.989c1.012,0,1.99,0.675,1.99,1.956
			c0,0.202-0.034,0.404-0.067,0.606c0.674,0.271,1.619,0.473,2.664,0.473c1.483,0,2.698-0.506,2.698-1.585
			c0-0.742-0.641-1.181-2.9-1.787c-4.08-1.079-5.8-2.058-5.8-4.587c0-2.293,1.888-4.687,6.036-4.687
			c1.787,0,3.945,0.674,4.957,1.686c0.54,0.54,0.809,1.181,0.809,1.889C71.97,104.409,71.229,105.219,70.149,105.219z"/>
	</g>
	<g>
		<path id="path_1_" fill="#F16823" d="M43.748,104.438c-0.163-0.416,1.14-1.728,1.966-0.899c1.404,1.401-2.6,0.742-0.861,2.215
			c2.042,1.728,0.589,3.524,0.042,5.532c-0.254,0.935,0.478,2.354-0.368,2.705c-1.007,0.419-2.572,0.064-2.091-1.396
			c-2.347-0.001-5.123,0.138-7.418,0.042c-1.068-0.046-0.678,2.229-2.787,1.354c-0.809-0.335-0.158-1.783-0.369-2.664
			c-0.478-1.983-2.083-3.84,0.082-5.614c1.736-1.424-2.328-0.747-0.901-2.174c0.752-0.752,2.059,0.313,1.968,0.94
			C31.703,97.357,45.009,97.343,43.748,104.438z M34.728,104.027c1.912-0.861,5.386-0.861,7.296,0
			C42.859,99.632,33.894,99.632,34.728,104.027z M35.22,105.218c0.891,1.208,1.284,5.339,4.386,3.894
			c1.038-0.484,1.019-3.103,1.927-3.894C39.859,104.514,36.895,104.514,35.22,105.218z M32.557,107.839
			c-1.336,4.509,12.954,4.44,11.641,0c-0.073-0.241-0.163-0.379-0.288-0.534c-1.802-2.19-2.812,2.576-3.812,2.996
			c-0.763,0.318-2.824,0.294-3.483,0c-0.966-0.435-1.463-3.713-2.625-3.568C33.231,106.83,32.724,107.273,32.557,107.839z"/>
		<path fill="#F16823" d="M38.254,105.136c0.679-0.256,0.814,3.755,0.081,3.688C37.816,108.777,37.808,105.305,38.254,105.136z"/>
		<path fill="#F16823" d="M33.909,107.923c1.541-0.328,1.497,1.912,0.287,1.968C32.966,109.945,32.776,108.162,33.909,107.923z"/>
		<path fill="#F16823" d="M42.394,107.923c1.551-0.33,1.53,1.991,0.205,1.968C41.457,109.868,41.284,108.157,42.394,107.923z"/>
	</g>
	<g enable-background="new    ">
		<path fill="#771C1C" d="M72.795,107.508c0-3.845,3.103-7.521,7.486-7.521c4.047,0,6.71,2.63,6.71,4.957
			c0,1.552-1.045,2.495-2.36,2.495c-1.214,0-2.226-1.011-2.226-2.226c0-0.438,0.202-0.943,0.472-1.247
			c-0.27-0.371-1.18-1.012-2.63-1.012c-1.686,0-3.777,1.383-3.777,4.62c0,2.832,2.158,4.619,4.789,4.619
			c1.787,0,3.338-0.506,5.261-1.551l-0.304,3.305c-1.585,0.91-3.103,1.349-5.261,1.349
			C76.302,115.297,72.795,112.262,72.795,107.508z"/>
	</g>
	<g enable-background="new    ">
		<path fill="#771C1C" d="M87.327,111.992h2.293V93.445h-2.293v-3.103h5.969v21.649h2.192v3.035h-8.161V111.992z"/>
	</g>
	<g enable-background="new    ">
		<path fill="#771C1C" d="M97.172,113.341c-0.471-0.775-0.741-1.787-0.741-2.967v-7.015h-2.192v-3.103h5.868v9.206
			c0,0.641,0.101,1.113,0.304,1.518c0.337,0.641,0.943,0.979,1.82,0.979c1.281,0,2.631-0.742,3.811-1.72v-6.88h-2.293v-3.103h5.969
			v11.735h2.192v3.035h-5.733v-2.36c-1.416,1.383-3,2.63-5.158,2.63C99.229,115.297,97.914,114.556,97.172,113.341z"/>
	</g>
	<g enable-background="new    ">
		<path fill="#771C1C" d="M116.525,113.611l-0.81,1.483h-2.495V93.445h-2.227v-3.103h5.902v11.533
			c1.078-1.046,2.461-1.889,4.35-1.889c3.912,0,6.846,3.136,6.846,7.588c0,4.282-3.103,7.722-7.082,7.722
			C119.122,115.297,117.773,114.623,116.525,113.611z M124.314,107.608c0-2.833-1.753-4.451-3.911-4.451
			c-1.383,0-2.495,0.607-3.507,1.483v6.34c0.978,0.675,2.124,1.146,3.507,1.146C122.461,112.127,124.314,110.542,124.314,107.608z"
			/>
	</g>
	<g enable-background="new    ">
		<path fill="#4C9694" d="M72.795,107.508c0-3.845,3.103-7.521,7.486-7.521c4.047,0,6.71,2.63,6.71,4.957
			c0,1.552-1.045,2.495-2.36,2.495c-1.214,0-2.226-1.011-2.226-2.226c0-0.438,0.202-0.943,0.472-1.247
			c-0.27-0.371-1.18-1.012-2.63-1.012c-1.686,0-3.777,1.383-3.777,4.62c0,2.832,2.158,4.619,4.789,4.619
			c1.787,0,3.338-0.506,5.261-1.551l-0.304,3.305c-1.585,0.91-3.103,1.349-5.261,1.349
			C76.302,115.297,72.795,112.262,72.795,107.508z"/>
	</g>
	<g enable-background="new    ">
		<path fill="#4C9694" d="M87.327,111.992h2.293V93.445h-2.293v-3.103h5.969v21.649h2.192v3.035h-8.161V111.992z"/>
	</g>
	<g enable-background="new    ">
		<path fill="#4C9694" d="M97.172,113.341c-0.471-0.775-0.741-1.787-0.741-2.967v-7.015h-2.192v-3.103h5.868v9.206
			c0,0.641,0.101,1.113,0.304,1.518c0.337,0.641,0.943,0.979,1.82,0.979c1.281,0,2.631-0.742,3.811-1.72v-6.88h-2.293v-3.103h5.969
			v11.735h2.192v3.035h-5.733v-2.36c-1.416,1.383-3,2.63-5.158,2.63C99.229,115.297,97.914,114.556,97.172,113.341z"/>
	</g>
	<g enable-background="new    ">
		<path fill="#4C9694" d="M116.525,113.611l-0.81,1.483h-2.495V93.445h-2.227v-3.103h5.902v11.533
			c1.078-1.046,2.461-1.889,4.35-1.889c3.912,0,6.846,3.136,6.846,7.588c0,4.282-3.103,7.722-7.082,7.722
			C119.122,115.297,117.773,114.623,116.525,113.611z M124.314,107.608c0-2.833-1.753-4.451-3.911-4.451
			c-1.383,0-2.495,0.607-3.507,1.483v6.34c0.978,0.675,2.124,1.146,3.507,1.146C122.461,112.127,124.314,110.542,124.314,107.608z"
			/>
	</g>
</g>
<g enable-background="new    ">
	<path fill="#5B5B5B" d="M164.859,4.967c0.308-0.065,0.793-0.114,1.288-0.114c0.704,0,1.158,0.122,1.499,0.397
		c0.283,0.211,0.453,0.535,0.453,0.964c0,0.527-0.348,0.989-0.924,1.199V7.43c0.52,0.13,1.127,0.559,1.127,1.369
		c0,0.47-0.187,0.826-0.462,1.094c-0.381,0.349-0.997,0.511-1.888,0.511c-0.486,0-0.859-0.032-1.094-0.065V4.967z M165.564,7.203
		h0.64c0.745,0,1.183-0.39,1.183-0.916c0-0.64-0.486-0.892-1.199-0.892c-0.324,0-0.51,0.024-0.623,0.049V7.203z M165.564,9.819
		c0.137,0.024,0.34,0.033,0.591,0.033c0.729,0,1.401-0.268,1.401-1.062c0-0.746-0.64-1.054-1.409-1.054h-0.583V9.819z"/>
	<path fill="#5B5B5B" d="M169.654,8.523c0.017,0.964,0.633,1.361,1.346,1.361c0.51,0,0.818-0.089,1.086-0.203l0.121,0.511
		c-0.252,0.113-0.681,0.243-1.305,0.243c-1.207,0-1.928-0.794-1.928-1.977c0-1.184,0.696-2.115,1.838-2.115
		c1.281,0,1.621,1.126,1.621,1.848c0,0.146-0.016,0.259-0.024,0.332H169.654z M171.745,8.013c0.008-0.453-0.187-1.158-0.989-1.158
		c-0.721,0-1.037,0.664-1.094,1.158H171.745z"/>
	<path fill="#5B5B5B" d="M174.174,5.307v1.126h1.021v0.543h-1.021v2.115c0,0.486,0.139,0.762,0.535,0.762
		c0.187,0,0.324-0.024,0.414-0.049l0.031,0.534c-0.137,0.057-0.355,0.098-0.631,0.098c-0.333,0-0.6-0.105-0.771-0.3
		c-0.202-0.211-0.275-0.559-0.275-1.021v-2.14h-0.607V6.433h0.607V5.493L174.174,5.307z"/>
	<path fill="#5B5B5B" d="M178.168,10.354l-0.057-0.494h-0.023c-0.22,0.308-0.641,0.583-1.199,0.583
		c-0.795,0-1.199-0.559-1.199-1.126c0-0.948,0.842-1.467,2.357-1.458V7.778c0-0.324-0.09-0.908-0.892-0.908
		c-0.364,0-0.745,0.113-1.021,0.292l-0.162-0.47c0.324-0.211,0.794-0.349,1.288-0.349c1.199,0,1.491,0.818,1.491,1.604v1.467
		c0,0.34,0.016,0.672,0.064,0.939H178.168z M178.062,8.354c-0.777-0.017-1.66,0.121-1.66,0.883c0,0.462,0.308,0.681,0.672,0.681
		c0.511,0,0.834-0.324,0.948-0.656c0.024-0.073,0.04-0.154,0.04-0.227V8.354z"/>
</g>
<g enable-background="new    ">
	<path fill="#5B5B5B" d="M127.736,90.067c0.247-0.052,0.637-0.091,1.031-0.091c0.564,0,0.928,0.098,1.2,0.317
		c0.228,0.169,0.363,0.429,0.363,0.772c0,0.421-0.278,0.791-0.739,0.959v0.014c0.415,0.104,0.901,0.447,0.901,1.096
		c0,0.376-0.149,0.661-0.37,0.875c-0.305,0.279-0.797,0.409-1.511,0.409c-0.39,0-0.687-0.026-0.876-0.052V90.067z M128.301,91.857
		h0.513c0.597,0,0.946-0.312,0.946-0.733c0-0.512-0.389-0.713-0.959-0.713c-0.26,0-0.408,0.02-0.5,0.039V91.857z M128.301,93.952
		c0.111,0.02,0.273,0.025,0.474,0.025c0.584,0,1.122-0.214,1.122-0.85c0-0.597-0.512-0.843-1.129-0.843h-0.467V93.952z"/>
	<path fill="#5B5B5B" d="M131.573,92.914c0.013,0.771,0.506,1.09,1.077,1.09c0.408,0,0.654-0.071,0.869-0.162l0.097,0.408
		c-0.201,0.091-0.545,0.194-1.044,0.194c-0.967,0-1.543-0.635-1.543-1.582c0-0.946,0.557-1.692,1.472-1.692
		c1.024,0,1.297,0.901,1.297,1.479c0,0.116-0.013,0.207-0.02,0.266H131.573z M133.246,92.506c0.007-0.363-0.148-0.928-0.791-0.928
		c-0.576,0-0.83,0.532-0.875,0.928H133.246z"/>
	<path fill="#5B5B5B" d="M135.189,90.34v0.901h0.817v0.435h-0.817v1.692c0,0.389,0.11,0.609,0.428,0.609
		c0.149,0,0.26-0.02,0.331-0.039l0.026,0.429c-0.11,0.045-0.285,0.077-0.506,0.077c-0.266,0-0.48-0.084-0.616-0.239
		c-0.162-0.169-0.221-0.448-0.221-0.817v-1.712h-0.486v-0.435h0.486v-0.752L135.189,90.34z"/>
	<path fill="#5B5B5B" d="M138.385,94.38l-0.045-0.396h-0.02c-0.175,0.246-0.512,0.467-0.96,0.467c-0.636,0-0.96-0.447-0.96-0.901
		c0-0.759,0.675-1.174,1.888-1.167v-0.065c0-0.259-0.071-0.726-0.714-0.726c-0.291,0-0.596,0.091-0.816,0.233l-0.13-0.377
		c0.259-0.168,0.636-0.278,1.03-0.278c0.961,0,1.193,0.655,1.193,1.284v1.174c0,0.272,0.014,0.538,0.053,0.752H138.385z
		 M138.301,92.778c-0.623-0.014-1.329,0.097-1.329,0.707c0,0.369,0.246,0.544,0.538,0.544c0.408,0,0.668-0.259,0.759-0.524
		c0.02-0.059,0.032-0.124,0.032-0.182V92.778z"/>
</g>
</svg>
