<?xml version="1.0" encoding="utf-8"?>
<!-- Generator: Adobe Illustrator 13.0.2, SVG Export Plug-In . SVG Version: 6.00 Build 14948)  -->
<!DOCTYPE svg PUBLIC "-//W3C//DTD SVG 1.1//EN" "http://www.w3.org/Graphics/SVG/1.1/DTD/svg11.dtd">
<svg version="1.1" id="Layer_1" xmlns="http://www.w3.org/2000/svg" xmlns:xlink="http://www.w3.org/1999/xlink" x="0px" y="0px"
	 width="180.75px" height="128px" viewBox="0 0 180.75 128" enable-background="new 0 0 180.75 128" xml:space="preserve">
<g>
	<text transform="matrix(1 0 0 1 51.6484 37.4785)" enable-background="new    "><tspan x="0" y="0" fill="#F16823" font-family="'AdobeSongStd-Light-GBpc-EUC-H'" font-size="43.4002">谷</tspan><tspan x="43.4" y="0" fill="#29629F" font-family="'AdobeSongStd-Light-GBpc-EUC-H'" font-size="43.4002">拼</tspan></text>
	<g>
		<path fill="none" d="M54.853,28.716c1.996-0.423,1.97,2.564,0.262,2.533C53.645,31.223,53.424,29.018,54.853,28.716z"/>
	</g>
	<g enable-background="new    ">
		<path fill="#771C1C" d="M102.075,20.711c2.097-0.189,4.194-0.353,6.289-0.494c-0.208-0.038-0.417-0.075-0.626-0.112
			c-2.265,0.213-4.532,0.402-6.803,0.564C101.315,20.683,101.695,20.697,102.075,20.711z"/>
	</g>
	<g enable-background="new    ">
		<path fill="#4C9694" d="M102.075,20.711c2.097-0.189,4.194-0.353,6.289-0.494c-0.208-0.038-0.417-0.075-0.626-0.112
			c-2.265,0.213-4.532,0.402-6.803,0.564C101.315,20.683,101.695,20.697,102.075,20.711z"/>
	</g>
</g>
<g>
	<text transform="matrix(1 0 0 1 39.9033 114.7285)" fill="#F16823" font-family="'ArialMT'" font-size="33.7174"> </text>
</g>
<text transform="matrix(1 0 0 1 71.875 105.5)"><tspan x="0" y="0" fill="#F04B2A" font-family="'AdobeSongStd-Light-GBpc-EUC-H'" font-size="14">谷</tspan><tspan x="14" y="0" fill="#4755A5" font-family="'AdobeSongStd-Light-GBpc-EUC-H'" font-size="14">拼</tspan></text>
</svg>
